<?xml version="1.0" encoding="UTF-8" standalone="no"?>
<!-- Created with Inkscape (http://www.inkscape.org/) -->

<svg
   width="50.799667mm"
   height="35.922485mm"
   viewBox="0 0 50.799667 35.922485"
   version="1.1"
   id="svg5"
   inkscape:export-filename="gravestone.svg"
   inkscape:export-xdpi="400.00259"
   inkscape:export-ydpi="400.00259"
   inkscape:version="1.2.2 (b0a8486541, 2022-12-01)"
   sodipodi:docname="gravestone.svg"
   xmlns:inkscape="http://www.inkscape.org/namespaces/inkscape"
   xmlns:sodipodi="http://sodipodi.sourceforge.net/DTD/sodipodi-0.dtd"
   xmlns:xlink="http://www.w3.org/1999/xlink"
   xmlns="http://www.w3.org/2000/svg"
   xmlns:svg="http://www.w3.org/2000/svg">
  <sodipodi:namedview
     id="namedview7"
     pagecolor="#ffffff"
     bordercolor="#666666"
     borderopacity="1.0"
     inkscape:showpageshadow="2"
     inkscape:pageopacity="0.0"
     inkscape:pagecheckerboard="0"
     inkscape:deskcolor="#d1d1d1"
     inkscape:document-units="mm"
     showgrid="false"
     inkscape:zoom="2.8088409"
     inkscape:cx="303.14996"
     inkscape:cy="433.80883"
     inkscape:window-width="1920"
     inkscape:window-height="1011"
     inkscape:window-x="0"
     inkscape:window-y="0"
     inkscape:window-maximized="1"
     inkscape:current-layer="layer2" />
  <defs
     id="defs2">
    <linearGradient
       inkscape:collect="always"
       id="linearGradient1938">
      <stop
         style="stop-color:#ffffff;stop-opacity:0;"
         offset="0.28863344"
         id="stop1934" />
      <stop
         style="stop-color:#ffffff;stop-opacity:1;"
         offset="0.31134692"
         id="stop1936" />
    </linearGradient>
    <linearGradient
       inkscape:collect="always"
       xlink:href="#linearGradient1938"
       id="linearGradient1940"
       x1="74.227547"
       y1="125.42935"
       x2="125.02722"
       y2="125.42935"
       gradientUnits="userSpaceOnUse" />
  </defs>
  <g
     inkscape:groupmode="layer"
     id="layer3"
     inkscape:label="Behind Tomb"
     transform="translate(-74.227548,-91.654508)">
    <path
       style="fill:#ffffff;fill-opacity:1;stroke:#000000;stroke-width:0.264583px;stroke-linecap:butt;stroke-linejoin:miter;stroke-opacity:1"
       d="m 87.352966,126.51626 c -0.121483,-1.19792 -0.0981,-2.39857 -0.0981,-3.59927 0,-0.16249 0.02537,-0.32697 0,-0.48746 -0.02942,-0.18621 -0.128865,-0.3562 -0.162615,-0.54167 -0.04492,-0.24686 -0.292421,-2.32295 -0.324848,-2.54534 -0.06338,-0.43464 -0.15344,-0.86512 -0.216818,-1.29977 -0.181359,-1.24375 -0.217993,-1.91467 -0.324848,-3.24923 -0.02024,-0.25266 -0.04445,-0.5052 -0.0542,-0.75848 -0.0083,-0.21641 0,-0.43313 0,-0.6497 0,-0.21669 -0.0075,-0.43351 0,-0.65007 0.01061,-0.30713 0.05251,-0.61303 0.0542,-0.92034 1.27e-4,-0.0231 -0.03704,-0.0294 -0.04886,-0.0492 -0.03928,-0.066 -0.06871,-0.13742 -0.103066,-0.20613 -0.09029,-0.18058 -0.193294,-0.35534 -0.271023,-0.54167 -0.06732,-0.16137 -0.24202,-0.78061 -0.270642,-0.86651 -0.09978,-0.29949 -0.265774,-0.5719 -0.379053,-0.86651 -0.08193,-0.2131 -0.144545,-0.43313 -0.216818,-0.6497 -0.119989,-0.35955 -0.245118,-0.71163 -0.324848,-1.08333 -0.163512,-0.76229 0.08094,0.14919 -0.162613,-0.7039 -0.03607,-0.12633 -0.09178,-0.24868 -0.108029,-0.37905 -0.02011,-0.16124 0,-0.32498 0,-0.48746 v -0.97493 -0.86651 c 0,-0.16236 -0.0085,-0.32494 0,-0.48708 0.03826,-0.73118 0.202073,-1.45815 0.379053,-2.16628 0.04991,-0.19971 0.08721,-0.40418 0.162232,-0.59587 0.08826,-0.22553 0.216892,-0.4331 0.325228,-0.6497 0.254886,-0.509591 0.521049,-0.990861 0.920337,-1.408181 0.600803,-0.62793 1.318641,-1.15564 2.00405,-1.67882 0.04013,-0.0306 1.484503,-1.0932 1.570413,-1.13715 1.040574,-0.532401 1.89098,-0.799273 3.032795,-0.974927 0.4475,-0.06884 0.90226,-0.07758 1.35397,-0.108408 0.3426,-0.02339 0.68546,-0.04583 1.02875,-0.0542 0.39713,-0.0097 0.79449,0 1.191741,0 0.1985,0 0.39789,-0.01884 0.59549,0 0.18331,0.01749 0.36026,0.07683 0.54167,0.10841 0.23388,0.04071 0.47563,0.04317 0.7039,0.108408 0.40629,0.11612 0.804,0.264395 1.19136,0.433258 0.31833,0.138771 0.61358,0.325413 0.920706,0.487459 0.34281,0.18087 0.68406,0.36476 1.02913,0.54129 1.91389,0.97906 0.66654,0.30499 2.00367,1.02912 0.55013,0.29793 0.64341,0.32396 1.13715,0.7039 0.29499,0.227 0.60333,0.44109 0.86652,0.70428 0.46108,0.46108 0.90136,1.191781 1.24556,1.732651 0.32581,0.51195 0.94623,1.50017 1.19174,2.00404 0.26915,0.55237 0.54563,1.47732 0.7039,2.05788 0.13622,0.49966 0.39523,1.52226 0.48746,2.11207 0.0949,0.60693 0.16563,1.59419 0.21644,2.16629 0.067,0.75442 0.16247,1.87058 0.27103,2.59954 0.0568,0.38164 0.15839,0.75569 0.21643,1.13715 0.47778,3.13998 -0.10649,-0.27791 0.27103,2.49113 0.0569,0.41756 0.15073,0.82932 0.21644,1.24557 5.2e-4,0.003 0.21648,1.62248 0.21681,1.62499 0.0361,0.27077 0.0834,0.54028 0.10803,0.81232 0.0114,0.12583 0,0.2527 0,0.37906 v 0.92071 l 0.47717,2.50043"
       id="path1140-6"
       sodipodi:nodetypes="csssssscssscssssssssscscsssssssssssssssssssssssscssccsscc" />
  </g>
  <g
     inkscape:groupmode="layer"
     id="layer5"
     inkscape:label="Grass 1"
     transform="translate(-74.227548,-91.654508)">
    <path
       style="fill:#ffffff;fill-opacity:1;stroke:#000000;stroke-width:0.264583px;stroke-linecap:butt;stroke-linejoin:miter;stroke-opacity:1"
       d="m 80.172683,127.43867 c -0.008,0 -0.01697,0.004 -0.02397,0 -0.0024,-0.001 0.0086,-0.18354 0,-0.20764 -0.0046,-0.013 -0.02178,-0.0179 -0.02928,-0.0295 -0.0029,-0.005 0.0021,-0.011 0,-0.016 -0.0027,-0.006 -0.01115,-0.008 -0.01355,-0.0136 -0.01736,-0.0406 0.01667,-0.15396 0,-0.19566 -0.0083,-0.0208 -0.164286,-0.16429 -0.188786,-0.18879 -0.0525,-0.0524 -0.110947,-0.0996 -0.157287,-0.1575 -0.202225,-0.25289 0.09446,0.088 -0.126005,-0.22029 -0.05942,-0.0831 -0.156337,-0.14039 -0.220287,-0.22029 -0.02366,-0.0296 -0.03877,-0.0654 -0.06301,-0.0945 -0.0662,-0.0794 -0.154037,-0.14088 -0.220287,-0.22028 -0.03383,-0.0405 -0.145854,-0.23119 -0.157284,-0.25179 -0.02276,-0.041 -0.03572,-0.0876 -0.063,-0.12579 -0.02591,-0.0362 -0.063,-0.063 -0.0945,-0.0945 -0.03143,-0.0524 -0.06285,-0.10489 -0.09428,-0.15729 -0.03451,-0.0483 -0.08397,-0.084 -0.126005,-0.126 -0.05248,-0.0524 -0.101017,-0.10899 -0.157287,-0.15729 -0.03984,-0.0342 -0.08567,-0.0609 -0.126005,-0.0945 -0.02274,-0.019 -0.03966,-0.0443 -0.06278,-0.0628 -0.02956,-0.0236 -0.06494,-0.0393 -0.0945,-0.063 -0.02319,-0.0186 -0.04019,-0.044 -0.063,-0.063 -0.04026,-0.0336 -0.08549,-0.0609 -0.125785,-0.0945 -0.02278,-0.019 -0.03646,-0.0496 -0.063,-0.0628 -0.01879,-0.009 -0.0435,0.008 -0.063,0 -0.372936,-0.14941 0.131992,0.0186 -0.157285,-0.12601 -0.01878,-0.009 -0.04228,0.003 -0.063,0 -0.07533,-0.0126 -0.14496,-0.0505 -0.22029,-0.063 -0.128706,-0.0215 -0.330681,0.0285 -0.451225,0 0.101234,0.0399 0.206308,0.0711 0.303702,0.11957 9.33e-4,4.7e-4 0.124927,0.12532 0.125784,0.12601 0.02954,0.0236 0.06495,0.0392 0.0945,0.0628 0.04642,0.0371 0.08404,0.084 0.126006,0.12601 0.02095,0.021 0.04185,0.042 0.06278,0.063 0.042,0.0419 0.08404,0.0838 0.126006,0.12578 0.01989,0.0199 0.171421,0.1554 0.188786,0.18879 0.0045,0.009 -0.0058,0.0213 0,0.0291 0.07827,0.10391 0.197139,0.17678 0.278411,0.27841 0.05696,0.0368 0.05761,0.10838 0.09428,0.15729 0.01782,0.0238 0.04772,0.0375 0.063,0.063 0.07612,0.0379 0.0076,0.10948 0.0315,0.15728 0.0133,0.0266 0.04972,0.0364 0.063,0.063 0.0094,0.0188 -0.0108,0.045 0,0.063 0.05006,0.0835 0.163417,0.11881 0.188787,0.22029 0.0072,0.0289 -0.0109,0.0617 0,0.0894 0.0029,0.007 0.01526,0.009 0.01708,0.0171 0.0043,0.0183 0,0.0376 0,0.0563 0.0105,0.021 0.02387,0.0408 0.0315,0.063 0.0031,0.009 -0.0041,0.02 0,0.0286 0.01202,0.0253 0.0487,0.0402 0.06411,0.0639 0.0068,0.0104 0.06041,0.11058 0.063,0.12046 0.0048,0.0184 -0.0048,0.0386 0,0.057 0.03991,0.15204 0.01378,-0.002 0.063,0.0945 0.01783,0.0348 -0.01866,0.0977 0,0.13199 0.03042,0.0559 0.09605,0.0969 0.117132,0.13688 0.0068,0.0129 -0.0092,0.24269 0,0.25134 0.0038,0.004 0.01035,0 0.01553,0"
       id="path1356" />
    <path
       style="fill:#ffffff;fill-opacity:1;stroke:#000000;stroke-width:0.264583px;stroke-linecap:butt;stroke-linejoin:miter;stroke-opacity:1"
       d="m 80.916975,127.48122 c 0,-0.0698 -0.01267,-0.1683 0,-0.2316 0.0046,-0.023 0.0258,-0.0401 0.0315,-0.0628 0.0051,-0.0204 0,-0.042 0,-0.063 0,-0.0698 -0.01254,-0.2206 0,-0.2833 0.0065,-0.0326 0.025,-0.0619 0.0315,-0.0945 0.0082,-0.0411 0,-0.0839 0,-0.12579 0,-0.10387 -0.01249,-0.24659 0,-0.34629 0.0054,-0.0429 0.02102,-0.0839 0.0315,-0.12578 0.01052,-0.042 0.01541,-0.0858 0.0315,-0.12601 0.02615,-0.0653 0.06976,-0.12288 0.0945,-0.18878 0.0074,-0.0197 -0.0041,-0.0424 0,-0.063 0.0065,-0.0325 0.025,-0.0618 0.0315,-0.0943 0.03368,-0.16821 -0.05984,0.0708 0.03128,-0.15751 0.0087,-0.0218 0.0228,-0.041 0.0315,-0.0628 0.01234,-0.0308 0.01666,-0.0648 0.0315,-0.0945 0.01693,-0.0339 0.0435,-0.062 0.063,-0.0945 0.0028,-0.005 0.0603,-0.12078 0.063,-0.12578 0.03032,-0.0532 0.0702,-0.10121 0.09428,-0.15751 0.0082,-0.0193 -0.0094,-0.0441 0,-0.0628 0.08404,-0.16778 0.528249,-0.0771 0.354057,-0.43769 -0.06496,0.16131 0.07329,0.3509 0.03905,0.52199 -0.04423,0.22099 -0.06811,0.13022 -0.0945,0.3148 0,0.30069 0.01405,-0.0705 -0.0315,0.15728 -0.01028,0.0514 0.01274,0.10643 0,0.15729 -0.0057,0.0228 -0.02581,0.0402 -0.0315,0.063 -0.01156,0.0463 0,0.16533 0,0.22029 0,0.1311 0,0.26221 0,0.39332 0,0.1459 0,0.2918 0,0.43769 0,0.0461 0.01065,0.21148 0,0.2458 -0.0036,0.0116 -0.01924,0.0157 -0.02573,0.026 -0.0087,0.0138 0,0.20507 0,0.24669"
       id="path1358" />
    <path
       style="fill:#ffffff;fill-opacity:1;stroke:#000000;stroke-width:0.264583px;stroke-linecap:butt;stroke-linejoin:miter;stroke-opacity:1"
       d="m 78.555166,124.90032 c 0,-0.004 0.0021,-0.0209 0,-0.0239 -0.005,-0.007 -0.01478,-0.0107 -0.01868,-0.0187 -0.0028,-0.005 0,-0.0126 0,-0.0186 -0.0031,-0.002 -0.0069,-0.004 -0.0093,-0.007 -0.0028,-0.004 0,-0.0597 0,-0.0637 0,-0.0496 0.0019,0.0212 -0.0093,-0.0466 -0.0016,-0.009 0.0016,-0.019 0,-0.028 -0.0016,-0.01 -0.0066,-0.019 -0.0093,-0.028 -0.0035,-0.0124 -0.0048,-0.0254 -0.0093,-0.0374 -0.01701,-0.0453 -0.04732,-0.0856 -0.06531,-0.13063 -0.0073,-0.0183 -0.01138,-0.0377 -0.01868,-0.056 -0.01971,-0.0493 -0.05105,-0.0928 -0.07465,-0.13997 -0.02179,-0.0436 -0.04351,-0.0871 -0.06531,-0.13069 -0.01474,-0.0295 -0.02728,-0.0568 -0.0467,-0.084 -0.0051,-0.007 -0.01303,-0.0116 -0.01863,-0.0186 -0.01,-0.012 -0.01802,-0.0254 -0.02802,-0.0374 -0.0056,-0.007 -0.01318,-0.0117 -0.01868,-0.0187 -0.007,-0.009 -0.01123,-0.02 -0.01863,-0.028 -0.06,-0.0674 -0.05153,-0.0377 -0.09333,-0.11201 -0.05838,-0.10389 -0.04458,-0.0727 -0.05598,-0.18279 0.04122,0.0132 0.08244,0.0264 0.12366,0.0397 0.03732,0.009 0.0751,0.017 0.111949,0.028 0.02545,0.008 0.04945,0.0196 0.07465,0.028 0.02148,0.007 0.04418,0.0105 0.06532,0.0187 0.05639,0.0217 0.05981,0.034 0.112015,0.0653 0.02747,0.0165 0.05618,0.0308 0.08399,0.0467 0.01574,0.009 0.03233,0.0168 0.04664,0.028 0.0139,0.0108 0.02491,0.0249 0.03736,0.0374 0.02177,0.0218 0.04354,0.0435 0.06532,0.0653 0.01866,0.0187 0.0388,0.0359 0.05597,0.056 0.05658,0.066 0.09435,0.14159 0.139969,0.21462 0.01783,0.0285 0.03731,0.056 0.05597,0.084 0.02488,0.0373 0.04814,0.0758 0.07466,0.11195 0.02097,0.0286 0.04208,0.0572 0.06531,0.084 0.08349,0.0963 0.03379,0.0132 0.112015,0.13063 0.02012,0.0302 0.03731,0.0622 0.05598,0.0933 0.03392,0.0565 0.10819,0.1759 0.13997,0.24264 0.01441,0.0303 0.02349,0.0628 0.03736,0.0933 0.01727,0.038 0.03885,0.0739 0.05598,0.11195 0.02976,0.0661 0.0436,0.13656 0.06531,0.20528 0.01186,0.0375 0.02605,0.0743 0.03736,0.11202 0.01456,0.0584 0.01998,0.0838 0.03729,0.13997 0.0058,0.0188 0.01417,0.0368 0.01868,0.056 0.008,0.0339 0.01296,0.0684 0.01868,0.10268 0.0036,0.0217 0.0075,0.0434 0.0093,0.0653 0.0035,0.0425 0,0.088 0,0.13063 0,0.0837 0,0.16738 0,0.25106"
       id="path1360" />
    <path
       style="fill:#ffffff;fill-opacity:1;stroke:#000000;stroke-width:0.264583px;stroke-linecap:butt;stroke-linejoin:miter;stroke-opacity:1"
       d="m 80.235933,127.39337 c 0,-0.0146 0.0013,0.0259 0.0041,0.019 0.0032,-0.008 -0.276688,-0.69028 -0.271788,-0.69728 0.0077,-0.0116 0.01298,-0.0247 0.01868,-0.0374 0.02913,-0.0655 0.02725,-0.079 0.0467,-0.16799 0.009,-0.0411 0.05551,-0.26203 0.06531,-0.31723 0.0072,-0.0403 0.0106,-0.0813 0.0186,-0.12136 0.0075,-0.0378 0.01922,-0.0744 0.02802,-0.11195 0.006,-0.0253 0.01028,-0.0587 0.01868,-0.084 0.04194,-0.12567 0.01565,-0.0237 0.04664,-0.13997 0.0132,-0.0496 0.02432,-0.0997 0.03736,-0.14931 0.009,-0.0343 0.01936,-0.0683 0.02796,-0.10268 0.0038,-0.0154 0.0043,-0.0316 0.0093,-0.0466 0.0044,-0.0132 0.01388,-0.0243 0.01868,-0.0374 0.01184,-0.0325 0.04274,-0.16177 0.04664,-0.17727 0.0062,-0.0249 0.01248,-0.0498 0.01868,-0.0747 0.0062,-0.0218 0.01318,-0.0433 0.01868,-0.0653 0.007,-0.0278 0.01248,-0.056 0.01868,-0.084 0.0031,-0.0187 0.005,-0.0376 0.0093,-0.056 0.01018,-0.0442 0.02566,-0.0869 0.03736,-0.13069 0.02247,-0.0842 0.02184,-0.10204 0.05598,-0.19594 0.02843,-0.0782 0.0378,-0.0809 0.07465,-0.14931 0.04747,-0.0882 0.01005,-0.0323 0.07466,-0.13997 0.01154,-0.0193 0.02733,-0.0359 0.03736,-0.056 0.01762,-0.0352 0.0223,-0.0756 0.0373,-0.11202 0.01432,-0.0347 0.03188,-0.0681 0.0467,-0.1026 0.03216,-0.075 0.04987,-0.12599 0.07466,-0.20529 4e-5,-1.3e-4 0.07097,-0.24968 0.09327,-0.28928 0.02374,-0.0422 0.09005,-0.0721 0.126156,-0.0933 -0.04019,0.0167 -0.08912,0.0199 -0.120564,0.05 -0.01574,0.015 0.0015,0.0436 0,0.0653 -0.0016,0.0219 -0.0078,0.0434 -0.0093,0.0653 -0.0033,0.0494 0.0038,0.0999 0,0.14931 -0.0022,0.0281 -0.0077,0.0559 -0.0093,0.084 -0.0027,0.0466 0,0.0933 0,0.13997 v 0.19595 0.47594 0.27994 c 0,0.0365 -0.0036,0.0756 0,0.11195 0.0019,0.0189 0.0039,0.0379 0.0093,0.056 0.01953,0.0652 0.0197,0.009 0.02796,0.0747 0.0037,0.0293 0,0.0718 0,0.10261 0,0.006 -0.0012,0.0126 0,0.0187 0.0019,0.01 0.0074,0.0184 0.0093,0.028 0.0012,0.006 -0.0015,0.0126 0,0.0186 0.0017,0.007 0.0077,0.0119 0.0093,0.0187 0.0043,0.0172 -0.0055,0.0392 0,0.056 0.0014,0.004 0.0067,0.006 0.0091,0.009 0.0036,0.005 0.0053,0.0114 0.0089,0.0165 0.0024,0.003 0.0066,0.005 0.0089,0.009 0.0037,0.006 0.0067,0.0118 0.0089,0.0182 8.49e-4,0.002 -0.0015,0.006 0,0.008 9.73e-4,0.001 0.0041,-0.001 0.0053,0 0.0013,0.001 0,0.004 0,0.006 0.0028,0 0.0064,-0.002 0.0084,0 0.0019,0.002 -0.0015,0.006 0,0.008 0.0011,0.002 0.0039,-7.1e-4 0.0056,0 0.0105,0.004 0.01474,0.017 0.02427,0.0218 0.0022,10e-4 0.0053,-0.001 0.0074,0 -0.138367,1.84976 -0.09639,1.80527 -0.08047,1.82127"
       id="path1362"
       sodipodi:nodetypes="csccsccccsscsccccccsscccscssccccccsccsscsscscccccccccccccccc" />
    <path
       style="fill:none;stroke:#000000;stroke-width:0.264583px;stroke-linecap:butt;stroke-linejoin:miter;stroke-opacity:1"
       d="m 79.808019,126.37491 c 0,-0.20758 0,-0.41516 0,-0.62274 0,-0.0654 -0.0059,-0.13106 0,-0.19619 0.0078,-0.0858 0.04541,-0.16681 0.05611,-0.2523 0.02424,-0.19363 -0.06102,0.0458 0.02805,-0.28035 0.01101,-0.0403 0.04463,-0.0719 0.05611,-0.11202 0.0077,-0.027 0,-0.0561 0,-0.0842 0,-0.0373 0,-0.0747 0,-0.11202 0,-0.17755 0,-0.3551 0,-0.53265 0,-0.2336 0,-0.46719 0,-0.70079 0,-0.0552 0.01201,-0.25422 0,-0.30821 -0.04051,-0.18199 -0.04236,-0.1688 -0.112221,-0.30841 -0.01868,-0.0373 -0.04289,-0.0724 -0.05611,-0.11202 -0.03171,-0.0951 -0.02805,-0.11741 -0.02805,-0.19619 0,-0.0187 0.0051,-0.0381 0,-0.0561 -0.04304,-0.15117 -0.0783,-0.15419 -0.140079,-0.30841 -0.10192,-0.0297 -0.01138,-0.0947 -0.02806,-0.13889 -0.02249,-0.11226 -0.09744,-0.2009 -0.138891,-0.30445 -0.06754,-0.16873 -0.05865,-0.20563 -0.112024,-0.39258 -0.039,-0.13661 -0.08055,-0.2331 -0.140274,-0.36432 -0.05994,-0.13171 -0.124349,-0.26678 -0.196189,-0.39238 -0.01675,-0.0293 -0.03507,-0.0578 -0.05611,-0.0842 -0.05276,-0.0661 -0.05819,-0.0363 -0.08397,-0.11202 -0.01177,-0.0346 0,-0.11432 0,-0.15964"
       id="path1366" />
    <path
       style="fill:none;stroke:#000000;stroke-width:0.264583px;stroke-linecap:butt;stroke-linejoin:miter;stroke-opacity:1"
       d="m 78.541842,120.96239 c 0.01021,-0.0652 -0.01439,-0.13427 0,-0.19903 0.01132,-0.051 0.03785,-0.0974 0.0582,-0.14555 0.124889,-0.29523 0.121309,-0.28729 0.223173,-0.50461 0.0258,-0.055 0.05044,-0.11062 0.07763,-0.16497 0.01167,-0.0233 0.02792,-0.0442 0.03885,-0.0679 0.0086,-0.0186 0.01177,-0.0392 0.01937,-0.0582 0.01074,-0.0269 0.0295,-0.0502 0.03885,-0.0776 0.0053,-0.0156 -0.0049,-0.069 0,-0.086 0.004,-0.0139 0.01296,-0.0259 0.01942,-0.0388 0.03226,-0.0648 0.0064,-0.013 0.03878,-0.0776 0.01294,-0.0259 0.0295,-0.0502 0.03885,-0.0776 0.0029,-0.008 0,-0.018 0,-0.0269 0,-0.025 0,-0.0501 0,-0.0752"
       id="path1368" />
    <path
       style="fill:none;stroke:#000000;stroke-width:0.264583px;stroke-linecap:butt;stroke-linejoin:miter;stroke-opacity:1"
       d="m 78.18947,119.52514 c 0.106304,0.12188 0.170217,0.19848 0.315301,0.32453 0.107916,0.0938 0.224946,0.17654 0.339582,0.26195 0.05036,0.0375 0.104815,0.0693 0.155258,0.10677 0.07587,0.0563 0.147606,0.11799 0.223173,0.17468 0.02588,0.0194 0.05013,0.0412 0.07763,0.0582 0.0406,0.0251 0.08438,0.0447 0.126122,0.0679 0.01651,0.009 0.03206,0.02 0.04856,0.0291 0.01262,0.007 0.02625,0.0122 0.03878,0.0193 0.02027,0.0116 0.0374,0.0284 0.05827,0.0388 0.0051,0.003 0.01135,0 0.01704,0"
       id="path1370" />
    <path
       style="fill:none;stroke:#000000;stroke-width:0.264583px;stroke-linecap:butt;stroke-linejoin:miter;stroke-opacity:1"
       d="m 79.733695,119.63812 c -0.108043,0.0544 -0.216038,0.10884 -0.324126,0.16313 -0.261178,0.13116 -0.05555,0.0337 -0.388072,0.16496 -0.04584,0.0181 -0.08991,0.0405 -0.135903,0.0582 -0.198782,0.0765 -0.03917,-0.005 -0.271664,0.10676 -0.120015,0.0576 -0.232267,0.15536 -0.339651,0.23289 -0.03781,0.0273 -0.07706,0.0526 -0.116408,0.0776 -0.0159,0.0101 -0.03281,0.0186 -0.04849,0.0291 -0.01347,0.009 -0.02447,0.0217 -0.03885,0.0291 -0.01085,0.006 -0.05359,-0.005 -0.06525,0 -0.01244,0.006 -0.02347,0.0147 -0.03639,0.0194 -0.0097,0.004 -0.05648,0 -0.06573,0"
       id="path1372" />
  </g>
  <g
     inkscape:label="Layer 1"
     inkscape:groupmode="layer"
     id="layer1"
     transform="translate(-74.227548,-91.654508)">
    <circle
       id="path239"
       style="fill:#000000;stroke:#000000;stroke-width:0.264583"
       cx="89.946739"
       cy="91.823181"
       r="0.036381297" />
    <path
       style="fill:#ffffff;fill-opacity:1;stroke:#000000;stroke-width:0.264583px;stroke-linecap:butt;stroke-linejoin:miter;stroke-opacity:1"
       d="m 91.379542,125.70837 c -0.121483,-1.19792 -0.0981,-2.39857 -0.0981,-3.59927 0,-0.16249 0.02537,-0.32697 0,-0.48746 -0.02942,-0.18621 -0.128865,-0.3562 -0.162615,-0.54167 -0.04492,-0.24686 -0.292421,-2.32295 -0.324848,-2.54534 -0.06338,-0.43464 -0.15344,-0.86512 -0.216818,-1.29977 -0.181359,-1.24375 -0.217993,-1.91467 -0.324848,-3.24923 -0.02024,-0.25266 -0.04445,-0.5052 -0.0542,-0.75848 -0.0083,-0.21641 0,-0.43313 0,-0.6497 0,-0.21669 -0.0075,-0.43351 0,-0.65007 0.01061,-0.30713 0.05251,-0.61303 0.0542,-0.92034 1.27e-4,-0.0231 -0.03704,-0.0294 -0.04886,-0.0492 -0.03928,-0.066 -0.06871,-0.13742 -0.103066,-0.20613 -0.09029,-0.18058 -0.193294,-0.35534 -0.271023,-0.54167 -0.06732,-0.16137 -0.24202,-0.78061 -0.270642,-0.86651 -0.09978,-0.29949 -0.265774,-0.5719 -0.379053,-0.86651 -0.08193,-0.2131 -0.144545,-0.43313 -0.216818,-0.6497 -0.119989,-0.35955 -0.245118,-0.71163 -0.324848,-1.08333 -0.163512,-0.76229 0.08094,0.14919 -0.162613,-0.7039 -0.03607,-0.12633 -0.09178,-0.24868 -0.108029,-0.37905 -0.02011,-0.16124 0,-0.32498 0,-0.48746 v -0.97493 -0.86651 c 0,-0.16236 -0.0085,-0.32494 0,-0.48708 0.03826,-0.73118 0.202073,-1.45815 0.379053,-2.16628 0.04991,-0.19971 0.08721,-0.40418 0.162232,-0.59587 0.08826,-0.225529 0.216892,-0.433097 0.325228,-0.649695 0.254886,-0.509596 0.521049,-0.99086 0.920337,-1.408182 0.600803,-0.627935 1.318641,-1.155641 2.00405,-1.67882 0.04013,-0.03063 1.484503,-1.093201 1.570413,-1.137156 1.040574,-0.532397 1.89098,-0.799269 3.032795,-0.974923 0.4475,-0.06884 0.90226,-0.07758 1.35397,-0.108408 0.3426,-0.02339 0.68546,-0.04583 1.02875,-0.0542 0.39713,-0.0097 0.79449,0 1.191741,0 0.1985,0 0.39789,-0.01884 0.59549,0 0.18331,0.01749 0.36026,0.07683 0.54167,0.10841 0.23388,0.04071 0.47563,0.04317 0.7039,0.108408 0.40629,0.11612 0.804,0.264395 1.19136,0.433258 0.31833,0.138771 0.61358,0.325413 0.92071,0.48746 0.34281,0.180869 0.68406,0.364763 1.02913,0.541285 1.91389,0.979061 0.66654,0.304993 2.00367,1.029128 0.55013,0.297926 0.64341,0.323954 1.13715,0.703898 0.29499,0.226994 0.60333,0.441089 0.86652,0.704281 0.46108,0.461081 0.90136,1.191781 1.24556,1.732645 0.32581,0.511951 0.94623,1.500171 1.19174,2.004041 0.26915,0.55237 0.54563,1.47732 0.7039,2.05788 0.13622,0.49966 0.39523,1.52226 0.48746,2.11207 0.0949,0.60693 0.16563,1.59419 0.21644,2.16629 0.067,0.75442 0.16247,1.87058 0.27103,2.59954 0.0568,0.38164 0.15839,0.75569 0.21643,1.13715 0.47778,3.13998 -0.10649,-0.27791 0.27103,2.49113 0.0569,0.41756 0.15073,0.82932 0.21644,1.24557 5.2e-4,0.003 0.21648,1.62248 0.21681,1.62499 0.0361,0.27077 0.0834,0.54028 0.10803,0.81232 0.0114,0.12583 0,0.2527 0,0.37906 v 0.92071 l 0.47717,4.11496"
       id="path1140"
       sodipodi:nodetypes="csssssscssscssssssssscscsssssssssssssssssssssssscssccsscc" />
  </g>
  <g
     inkscape:groupmode="layer"
     id="layer2"
     inkscape:label="Grass"
     transform="translate(-74.227548,-91.654508)">
    <path
       style="fill:url(#linearGradient1940);fill-opacity:1;stroke:#000000;stroke-width:0.264583px;stroke-linecap:butt;stroke-linejoin:miter;stroke-opacity:1"
       d="m 74.235971,127.40627 c 2.314868,-0.14768 4.642439,0.13633 6.957644,0 3.693658,-0.2175 5.49279,-0.81259 9.3926,-1.46245 1.038489,-0.17305 2.090277,-0.25643 3.130867,-0.41637 0.769086,-0.11821 1.521738,-0.34732 2.296655,-0.41784 1.454962,-0.13239 2.933248,0.18137 4.382923,0 0.43657,-0.0546 0.82903,-0.29686 1.25205,-0.41784 1.09548,-0.31331 2.90759,-0.7133 3.96655,-0.83421 1.66487,-0.19009 3.33598,-0.33611 5.00968,-0.41784 1.181,-0.0577 2.36482,0 3.54724,0 1.04411,0 2.08822,0 3.13233,0 2.57424,0 5.14848,0 7.72271,0"
       id="path1134" />
  </g>
  <g
     inkscape:groupmode="layer"
     id="layer4"
     inkscape:label="Text"
     transform="translate(-74.227548,-91.654508)">
    <path
       style="fill:none;stroke:#000000;stroke-width:0.436074px;stroke-linecap:butt;stroke-linejoin:miter;stroke-opacity:1"
       d="m 93.596194,102.80707 c 0.04003,0.438 0.112009,0.87112 0.198113,1.30195 0.0222,0.11108 0.03754,0.22378 0.06675,0.33324 0.05981,0.2241 0.215738,0.40445 0.266729,0.63356 0.01831,0.0823 -0.0122,0.0933 0,0.16661 0.0076,0.0453 0.02581,0.0882 0.03336,0.13351 0.0035,0.0219 -0.0071,0.0455 0,0.0666 0.01582,0.0471 0.04926,0.0869 0.06675,0.1335 0.01615,0.0429 0.02223,0.0888 0.03336,0.13317 0.03328,0.0667 0.07221,0.13103 0.09988,0.20024 0.01701,0.0425 0.01632,0.0908 0.03336,0.13317 0.02774,0.0692 0.07652,0.12921 0.100109,0.19998 0.02141,0.0641 0.02011,0.13383 0.03336,0.20024 0.02006,0.10037 0.05206,0.1985 0.0665,0.29986 0.01417,0.0991 0,0.20007 0,0.30012 0,0.14454 0,0.28905 0,0.43358 0,0.0221 0,0.0443 0,0.0664 0,0.0222 0.02115,0.0598 0,0.0667 -0.02246,0.007 -0.0372,-0.0305 -0.05005,-0.0503 -0.174559,-0.27002 -0.208552,-0.62473 -0.327125,-0.92076 -0.01849,-0.0461 -0.04453,-0.0888 -0.06673,-0.13317 -0.332375,-0.66521 0.07361,0.14652 -0.16662,-0.33347 -0.02228,-0.0445 -0.04926,-0.0869 -0.06673,-0.1335 -0.186876,-0.49789 0.09248,0.16415 -0.06673,-0.23336 -0.0337,-0.0842 -0.08326,-0.17117 -0.09848,-0.26204 -0.0053,-0.0315 0,-0.0638 0,-0.0956 0,-0.0555 0,-0.11108 0,-0.16663 0,-0.15558 0,-0.31128 0,-0.46693 0,-0.25562 0,-0.51123 0,-0.76684 0,-0.0979 -0.0097,-0.20266 0,-0.29987 0.03389,-0.33843 0.05185,-0.20244 0.166618,-0.50033 0.01005,-0.0262 0,-0.18393 0,-0.2256 0,-0.0222 0,-0.0445 0,-0.0667 0.01005,0 0.02438,0.008 0.03031,0 0.214466,-0.29381 -0.06007,-0.005 0.130435,-0.19552 0.136071,-0.13613 0.224765,-0.17895 0.400211,-0.26672 0.06667,-0.0333 0.128078,-0.0804 0.199992,-0.10004 0.05358,-0.0148 0.11135,0.005 0.16662,0 0.05642,-0.005 0.110493,-0.0269 0.166851,-0.0331 0.118651,-0.0132 0.246983,0 0.366611,0 0.100026,0 0.200068,0 0.300102,0 0.0178,0 0.118025,-0.007 0.138182,0 0.04674,0.0168 0.09353,0.0368 0.133253,0.0666 0.03148,0.0236 0.26304,0.25109 0.300102,0.30009 0.01467,0.0194 0.02223,0.0435 0.03336,0.0653"
       id="path1312" />
    <path
       style="fill:none;stroke:#000000;stroke-width:0.436074px;stroke-linecap:butt;stroke-linejoin:miter;stroke-opacity:1"
       d="m 97.775067,102.84961 c 0.07779,0.11669 0.150872,0.23671 0.233362,0.35017 0.05103,0.0702 0.114547,0.13053 0.166618,0.19999 0.182669,0.24344 0.331208,0.51358 0.50009,0.76682 0.145598,0.21833 0.309164,0.43552 0.433585,0.66671 0.02838,0.0527 0.04221,0.11207 0.0665,0.16686 0.08282,0.18653 0.206062,0.44116 0.333471,0.60019 0.01963,0.0246 0.04664,0.0424 0.06673,0.0666 0.07133,0.0663 0.106866,0.15872 0.16662,0.23337 0.01966,0.0246 0.04603,0.043 0.06673,0.0667 0.106454,0.12163 0.278337,0.32503 0.366847,0.46672 0.1603,0.2566 -0.0437,0.007 0.16662,0.3001 0.0183,0.0255 0.0466,0.0425 0.0667,0.0667 0.0165,0.0198 0.18372,0.22604 0.19999,0.26672 0.0181,0.0453 -0.013,0.17215 0,0.22724 0.0105,0.0447 0.0445,0.0808 0.0616,0.12345 0.013,0.0326 0.0153,0.07 0.0334,0.10004 0.0162,0.0269 0.0479,0.0414 0.0667,0.0666 0.015,0.0199 0.0178,0.0473 0.0334,0.0667 0.0294,0.0369 0.0666,0.0667 0.0999,0.10004 0.0222,0.0222 0.0527,0.0386 0.0667,0.0667 0.01,0.0198 0,0.0443 0,0.0666 0,0.0222 0,0.0445 0,0.0667 0,0.008 0,-0.0165 0,-0.0241 0,-0.0631 0,-0.12625 0,-0.18941 0,-0.13334 0,-0.26682 0,-0.40022 0,-0.40006 0,-0.80011 0,-1.20017 0,-0.11109 0,-0.22232 0,-0.33347 0,-0.13334 -0.0147,-0.26748 0,-0.39998 0.0188,-0.16896 0.0749,-0.33197 0.10011,-0.5001 0.008,-0.055 0,-0.11125 0,-0.16685 0,-0.0555 0,-0.11109 0,-0.16662 0,-0.20007 0,-0.40014 0,-0.6002 0,-0.63858 0,-1.27718 0,-1.91577"
       id="path1314" />
    <path
       style="fill:none;stroke:#000000;stroke-width:0.436074px;stroke-linecap:butt;stroke-linejoin:miter;stroke-opacity:1"
       d="m 105.22123,102.72176 c 0,0.12741 0,0.25476 0,0.38213 0,0.089 -0.005,0.178 0,0.26674 0.0181,0.28946 0.0875,0.57685 0.10004,0.86693 0.007,0.15542 0,0.31115 0,0.46672 0,0.38901 0,0.77803 0,1.16704 0,0.17782 0,0.35564 0,0.53346 0,0.0208 0.01,0.20514 0,0.2256 -0.0185,0.0379 -0.071,0.0455 -0.10416,0.0715 -0.0247,0.0195 -0.0406,0.0491 -0.0667,0.0666 -4.5e-4,4.2e-4 -0.26618,0.13317 -0.26674,0.1335 -0.0455,0.0185 -0.11339,-0.0183 -0.15905,0 -0.0372,0.0148 -0.0631,0.0513 -0.10004,0.0667 -0.0283,0.0115 -0.15707,0 -0.19247,0 -0.13334,0 -0.26681,0 -0.40022,0 -0.0467,0 -0.20072,0.0132 -0.23336,0 -0.0932,-0.0372 -0.16453,-0.13152 -0.23336,-0.20023 -0.0191,-0.0191 -0.16637,-0.16566 -0.16685,-0.16661 -0.0148,-0.0298 0.009,-0.0681 0,-0.10004 -0.0137,-0.0478 -0.0545,-0.085 -0.0665,-0.13318 -0.0107,-0.0432 0.003,-0.0892 0,-0.1335 -0.008,-0.11141 -0.0264,-0.22182 -0.0334,-0.33324 -0.004,-0.0666 0,-0.1335 0,-0.20021 0,-0.21113 0,-0.42224 0,-0.63336 0,-0.25559 0,-0.5112 0,-0.76682 0,-0.0616 -0.013,-0.34965 0,-0.3941 0.014,-0.0478 0.0392,-0.0921 0.0667,-0.1335 0.0482,-0.0724 0.31339,-0.29778 0.36661,-0.33324 0.0414,-0.0275 0.0913,-0.0404 0.13348,-0.0667 0.0471,-0.0295 0.0881,-0.0677 0.13325,-0.10005 0.0326,-0.0234 0.0693,-0.041 0.10011,-0.0667 0.0627,-0.0522 0.0867,-0.11323 0.16662,-0.13317 0.0216,-0.005 0.0445,0 0.0667,0 0.10449,0 0.209,0 0.3135,0 0.0318,0 0.27267,-0.01 0.30504,0 0.0555,0.0178 0.005,0.0424 0.0264,0.0733 0.0432,0.0613 0.14289,0.14273 0.19881,0.19882 0.045,0.045 0.11455,0.0964 0.13746,0.15773 0.003,0.01 0,0.0222 0,0.0333 0.01,0.0206 0.0213,0.0414 0.0318,0.062 1.8e-4,3.8e-4 0.0659,0.13185 0.0662,0.13284 0.0132,0.0373 -0.01,0.0854 0,0.12362 0.008,0.0335 0.0252,0.0646 0.0316,0.0984 0.0115,0.0605 0,0.13828 0,0.19999 0,0.1424 0,0.28481 0,0.42723 0,0.47589 0,0.95178 0,1.42767 0,0.13333 0,0.2668 0,0.40022 0,0.0948 -0.0251,0.2255 0.0333,0.30339 0.019,0.0252 0.0407,0.0489 0.0667,0.0667 0.01,0.007 0.14669,0 0.16778,0 0.0287,0 0.0595,-0.0115 0.0857,0 0.17172,0.0752 -0.0293,0.0595 0.13202,0.0994 0.0466,0.0115 0.26901,0 0.33699,0"
       id="path1318" />
    <circle
       id="path1320"
       style="fill:#000000;stroke:none;stroke-width:0.436074"
       cx="95.439903"
       cy="113.98107"
       r="0.65411127" />
    <path
       style="fill:none;stroke:#000000;stroke-width:0.436074px;stroke-linecap:butt;stroke-linejoin:miter;stroke-opacity:1"
       d="m 97.80595,110.16621 c 0.06072,0.2275 0.121452,0.45499 0.18217,0.68249 0.04046,0.12147 0.08631,0.24124 0.121453,0.36434 0.04575,0.16036 0.07399,0.32539 0.121024,0.48536 0.09017,0.30679 0.225973,0.59978 0.303611,0.90998 0.12938,0.51693 0.01796,0.19711 0.06072,0.66711 0.01121,0.12262 0.04847,0.24182 0.06072,0.36432 0.01727,0.17245 0,0.3714 0,0.54609 0,0.42463 0,0.84927 0,1.27391 0,0.0148 0.0021,-0.0295 0,-0.044 -0.01792,-0.11059 -0.0323,-0.22219 -0.06072,-0.33055 -0.151548,-0.57773 -0.133006,-0.16152 -0.182169,-0.84927 -0.01582,-0.2218 0,-0.44473 0,-0.66709 0,-0.3843 0,-0.7686 0,-1.15288 0,-0.26342 0,-0.52685 0,-0.79026 0,-0.0666 -0.01669,-0.22721 0,-0.29249 0.01121,-0.0438 0.04046,-0.0809 0.06072,-0.12147 0.01696,-0.034 0.02761,-0.0719 0.0509,-0.10186 0.0018,-0.003 0.259812,0 0.312596,0 0.420353,0 0.84071,0 1.261065,0 0.0475,0 0.0986,0.0183 0.14241,0 0.0137,-0.005 0.0662,-0.0686 0.0971,-0.0368 0.006,0.007 -0.006,0.0204 0,0.0279 0.0246,0.0326 0.0633,0.0531 0.0864,0.0869 0.0304,0.0443 -0.0266,0.1452 0,0.19244 0.007,0.0132 0.0243,0.0175 0.0308,0.0303 0.0218,0.043 0,0.26165 0,0.32329"
       id="path1322" />
    <path
       style="fill:none;stroke:#000000;stroke-width:0.436074px;stroke-linecap:butt;stroke-linejoin:miter;stroke-opacity:1"
       d="m 102.53739,111.94635 c 0.0777,0.26247 0.0896,0.53628 0.14307,0.80321 0.0216,0.10796 0.0549,0.21349 0.0717,0.32223 0.007,0.0471 -0.006,0.0958 0,0.14306 0.006,0.0488 0.0297,0.0944 0.0358,0.14339 0.006,0.0473 0,0.0954 0,0.14306 0,0.13136 0,0.26262 0,0.39391 0,0.41562 0,0.83122 0,1.24683"
       id="path1324" />
    <path
       style="fill:none;stroke:#000000;stroke-width:0.436074px;stroke-linecap:butt;stroke-linejoin:miter;stroke-opacity:1"
       d="m 102.27293,110.57941 0.058,0.3987"
       id="path1326" />
    <path
       style="fill:none;stroke:#000000;stroke-width:0.436074px;stroke-linecap:butt;stroke-linejoin:miter;stroke-opacity:1"
       d="m 104.63335,110.53852 c 0.0358,0.2537 0.0682,0.50789 0.10746,0.76106 0.0669,0.43129 0.15377,0.86364 0.25058,1.28899 0.0218,0.0959 0.0577,0.18898 0.0717,0.2864 0.01,0.0709 -0.005,0.14339 0,0.21474 0.007,0.0842 0.0282,0.16656 0.0358,0.25059 0.008,0.0903 -0.0148,0.19578 0,0.28641 0.0188,0.11274 0.0582,0.18815 0.1073,0.2864 0.0115,0.0239 0.0293,0.0458 0.0358,0.0717 0.007,0.0231 0,0.0478 0,0.0717 0,0.19076 0,0.38153 0,0.57231 0,0.0358 -0.008,0.0725 0,0.10729 0.003,0.0165 0.0303,0.0199 0.0358,0.0358 0.0165,0.0456 -0.0203,0.16481 0,0.20339 0.0165,0.03 0.0565,0.0415 0.0717,0.0717 5e-5,1.1e-4 -6e-5,0.14273 0,0.14306 0.007,0.0371 0.0267,0.0709 0.0358,0.10746 0.005,0.0213 -0.008,0.0453 0,0.0659 0.008,0.0236 0.0264,0.043 0.0358,0.0661 0.0148,0.0349 0.0216,0.0724 0.0356,0.10746 0.01,0.0249 0.0293,0.0458 0.0358,0.0717 0.0148,0.057 0,0.13284 0,0.19278"
       id="path1328" />
    <path
       style="fill:none;stroke:#000000;stroke-width:0.436074px;stroke-linecap:butt;stroke-linejoin:miter;stroke-opacity:1"
       d="m 104.86152,111.97457 c 0.002,-0.0491 -0.003,-0.0989 0,-0.14784 0.002,-0.0359 0.0183,-0.15839 0.0251,-0.19041 0.0148,-0.0687 0.0483,-0.1335 0.0801,-0.19544 0.0351,-0.0682 0.0549,-0.10993 0.0953,-0.17039 0.0172,-0.0257 0.0547,-0.0747 0.0752,-0.1002 0.0148,-0.0185 0.0293,-0.0373 0.0452,-0.055 0.0195,-0.0219 0.0427,-0.0414 0.0651,-0.0602 0.0183,-0.0148 0.0356,-0.0315 0.0552,-0.0452 0.0148,-0.01 0.03,-0.0168 0.0451,-0.025 0.0397,-0.0218 0.0778,-0.044 0.12032,-0.0602 0.0346,-0.0132 0.0702,-0.0231 0.10532,-0.0351 0.1569,-0.0539 -0.0198,0.003 0.0902,-0.03 0.0201,-0.007 0.0638,-0.0226 0.0801,-0.0251 0.0148,-0.002 0.03,0 0.0452,0 0.0183,0 0.0367,0 0.055,0 0.0842,0 0.16495,-0.005 0.24554,0.0251 0.10087,0.0381 0.15888,0.0694 0.25057,0.1152 0.0641,0.0321 0.1307,0.0628 0.1854,0.11027 0.0279,0.0242 0.0501,0.0532 0.0752,0.0803 0.0315,0.0336 0.0621,0.0681 0.0951,0.10021 0.0425,0.0412 0.0935,0.0733 0.13531,0.1152 0.0397,0.0397 0.087,0.11224 0.1152,0.15543 0.0115,0.0168 0.049,0.0799 0.0552,0.1002 0.0189,0.0618 0.0148,0.0847 0.0148,0.14537 0,0.03 0.003,0.0603 0,0.0901 -0.007,0.062 -0.0328,0.17708 -0.0501,0.23553 -0.0198,0.0669 -0.0654,0.13432 -0.10532,0.19041 -0.0822,0.11586 -0.0831,0.12081 -0.17035,0.2205 -0.0382,0.0437 -0.0885,0.0809 -0.13532,0.11521 -0.0115,0.008 -0.0229,0.0175 -0.0351,0.0251 -0.0166,0.01 -0.11801,0.0639 -0.12032,0.0651 -0.0231,0.0115 -0.0475,0.0221 -0.0702,0.0351 -0.0763,0.0437 -0.01,0.0165 -0.13037,0.0702 -0.0295,0.0132 -0.0602,0.0234 -0.0902,0.0351 -0.0783,0.0305 -0.10367,0.0425 -0.1854,0.0651 -0.0165,0.005 -0.0335,0.007 -0.0501,0.01 -0.0166,0.003 -0.0331,0.008 -0.0501,0.01 -0.0199,0.002 -0.0401,0 -0.0602,0 -0.0976,0 -0.0895,0.003 -0.19041,-0.01 -0.0186,-0.002 -0.0371,-0.005 -0.0552,-0.01 -0.0188,-0.005 -0.0364,-0.0132 -0.0551,-0.0199 -0.21062,-0.0681 -0.0259,-0.003 -0.20546,-0.0651 -0.0285,-0.01 -0.0567,-0.0203 -0.0852,-0.03 -0.0251,-0.008 -0.0503,-0.0165 -0.0752,-0.025 -0.0269,-0.01 -0.0534,-0.0203 -0.0801,-0.0302 -0.0323,-0.0115 -0.0321,-0.008 -0.0651,-0.0251 -0.007,-0.003 -0.008,-0.0115 -0.0148,-0.0148 -0.005,-0.003 -0.01,-0.002 -0.0148,-0.005 -0.003,-0.003 -0.007,-0.007 -0.01,-0.01 -0.003,-0.003 -0.008,-0.005 -0.01,-0.01 -0.003,-0.01 0,-0.0198 0,-0.0297 0,-0.01 0,-0.0201 0,-0.03 0,-0.0265 0,-0.0531 0,-0.0798"
       id="path1334" />
  </g>
</svg>
